<?xml version="1.0" encoding="utf-8"?>
<!-- Generator: Adobe Illustrator 23.0.2, SVG Export Plug-In . SVG Version: 6.00 Build 0)  -->
<svg version="1.1" id="Layer_1" xmlns="http://www.w3.org/2000/svg" xmlns:xlink="http://www.w3.org/1999/xlink" x="0px" y="0px"
	 viewBox="0 0 813.7 166.1" style="enable-background:new 0 0 813.7 166.1;" xml:space="preserve">
<style type="text/css">
	.st0{fill:#FFFFFF;}
</style>
<g>
	<g>
		<path class="st0" d="M96.8,92L85,67.4l-14.8-31l-14.9,31L43.5,92H32.4L0,24.4h11.3l16.5,35.4l10.2,21.5l10.3-21.5l16.3-35.4h11.2
			l16.5,35.4l10.2,21.5l10.3-21.5L129,24.4h11.4L107.9,92H96.8z"/>
		<path class="st0" d="M242.9,92c-4.4,1.3-8.1,1.9-11.2,1.9c-11.2,0-12.7-6-12.9-15.3c-6.7,8.7-22.6,15.3-39,15.3
			c-20.6,0-35-8.2-35-23.7c0-17,18.4-20.8,35-20.8c11.4,0,27,1.3,38.5,3.1c0-11.3-8.5-20.3-33.4-20.3c-15.3,0-27.9,3-31.3,4.2
			l-3.3-9c3.9-1.4,18.1-4.9,34.6-4.9c32.4,0,43.9,13.4,43.9,31.4v20.7c0,6.6,1.3,9.8,7.1,9.8c1.8,0,4.5-0.5,7.1-1.4V92z M181.6,85
			c16.3,0,32.9-7.2,36.9-16.5V56.5h-39.1c-11.2,0-24,2.3-24,13.1C155.3,80,166.7,85,181.6,85z"/>
		<path class="st0" d="M332.4,24.4L289.2,92H278l-43.1-67.5H247l21.9,35.4L283.7,83l14.7-23.1l22-35.4H332.4z"/>
		<path class="st0" d="M344.1,63.4c2.3,13.6,14.9,20.8,39.5,20.8c17.7,0,33.4-3.5,37.3-4.8l2.1,9c-4.5,1.7-20.3,5.4-39,5.4
			c-34.1,0-50.9-12.5-50.9-35.2c0-19.8,14.7-36.1,45.1-36.1c29.3,0,52.2,13.6,43.7,40.9H344.1z M411.9,55.4
			c4-16.2-12.6-23.5-33.2-23.5c-23.7,0-33.4,10.2-34.7,23.5H411.9z"/>
		<path class="st0" d="M436.1,92V24.6l9.9-1.2l0.3,7.3l0.1,0.1c8.7-4.4,17.5-8.4,29.3-8.4c14,0,23.4,4,29.2,10.5
			c10-5.7,24.7-10.5,36.8-10.5c27.5,0,37.2,15,37.2,35.2V92h-10.3V57.7c0-14.7-6-25.7-27.9-25.7c-12.7,0-23.4,4.2-31.8,8.2
			c2.6,5,3.7,10.9,3.7,17.5V92h-10.3V57.7c0-14.7-5.7-25.7-27.4-25.7c-12.7,0-21.6,4.2-28.6,7.3V92H436.1z"/>
		<path class="st0" d="M593.6,92V24.6l10.3-1.2V92H593.6z"/>
		<path class="st0" d="M698.8,92V57.7c0-14.7-8.5-25.7-32-25.7c-13.5,0-27.4,3.9-37.8,7.3V92h-10.3V24.6l9.9-1.2l0.3,7.3l0.1,0.1
			c10.3-4.2,23.9-8.4,38.8-8.4c29.1,0,41.3,15,41.3,35.2V92H698.8z"/>
		<path class="st0" d="M802.7,21.2V1.2L813,0v92h-9.1l-0.6-13.4l-0.1-0.1c-8.4,7.7-23.3,15.4-42.4,15.4c-26.8,0-41.9-15-41.9-36
			c0-20.3,14.3-35.4,43.9-35.4c14,0,29.3,3.5,40.1,8.5l0.1-0.1L802.7,21.2z M729.1,58c0,15.2,11.2,26.2,32.5,26.2
			c18,0,34.5-7.6,41-15.4V39.4c-10.5-4-26.2-7.3-39.2-7.3C739.7,32,729.1,43.1,729.1,58z"/>
	</g>
	<g>
		<path class="st0" d="M5.5,165.2c-1.3-0.6-2.4-1.4-3.1-2.5s-1.1-2.3-1.1-3.8v-0.6c0-0.4,0.2-0.6,0.6-0.6h3.6c0.4,0,0.6,0.1,0.6,0.4
			v0.5c0,0.9,0.4,1.7,1.2,2.3c0.8,0.6,1.9,0.9,3.3,0.9c1.2,0,2.1-0.3,2.7-0.8s0.9-1.1,0.9-1.9c0-0.5-0.2-1-0.5-1.4
			c-0.4-0.4-0.9-0.7-1.5-1c-0.6-0.3-1.6-0.7-3-1.2c-1.5-0.5-2.8-1.1-3.9-1.6c-1-0.5-1.9-1.3-2.7-2.2s-1.1-2.1-1.1-3.5
			c0-1.4,0.4-2.6,1.1-3.6c0.7-1,1.7-1.8,2.9-2.4c1.3-0.5,2.7-0.8,4.3-0.8c1.7,0,3.3,0.3,4.6,0.9c1.4,0.6,2.4,1.5,3.2,2.6
			c0.8,1.1,1.1,2.4,1.1,3.8v0.3c0,0.4-0.2,0.6-0.6,0.6h-3.6c-0.4,0-0.6-0.1-0.6-0.3v-0.3c0-1-0.4-1.8-1.2-2.4c-0.8-0.7-1.9-1-3.2-1
			c-1.1,0-1.9,0.2-2.5,0.7c-0.6,0.5-0.9,1.1-0.9,1.9c0,0.6,0.2,1,0.5,1.4c0.3,0.4,0.9,0.7,1.6,1.1s1.8,0.7,3.2,1.2
			c1.6,0.6,2.9,1.1,3.8,1.6c0.9,0.4,1.8,1.1,2.5,2c0.7,0.9,1.1,2.1,1.1,3.5c0,1.4-0.4,2.6-1.1,3.6c-0.7,1-1.7,1.9-3,2.4
			c-1.3,0.6-2.8,0.9-4.6,0.9S6.8,165.8,5.5,165.2z"/>
		<path class="st0" d="M47.1,142.6v3c0,0.4-0.2,0.6-0.6,0.6h-5.9c-0.1,0-0.2,0.1-0.2,0.2v18.9c0,0.4-0.2,0.6-0.6,0.6h-3.6
			c-0.4,0-0.6-0.2-0.6-0.6v-18.9c0-0.1-0.1-0.2-0.2-0.2h-5.7c-0.4,0-0.6-0.2-0.6-0.6v-3c0-0.4,0.2-0.6,0.6-0.6h16.8
			C46.9,142,47.1,142.2,47.1,142.6z"/>
		<path class="st0" d="M70.9,165.4l-4.2-9.3c0-0.1-0.1-0.2-0.2-0.2h-3.1c-0.1,0-0.2,0.1-0.2,0.2v9.1c0,0.4-0.2,0.6-0.6,0.6h-3.6
			c-0.4,0-0.6-0.2-0.6-0.6v-22.7c0-0.4,0.2-0.6,0.6-0.6h9.6c1.5,0,2.7,0.3,3.8,0.9c1.1,0.6,2,1.4,2.6,2.5c0.6,1.1,0.9,2.3,0.9,3.8
			c0,1.5-0.4,2.9-1.2,4c-0.8,1.1-1.8,1.9-3.2,2.4c-0.1,0-0.1,0.1-0.1,0.1c0,0.1,0,0.1,0,0.2l4.5,9.4c0.1,0.1,0.1,0.2,0.1,0.3
			c0,0.1,0,0.2-0.1,0.3s-0.2,0.1-0.4,0.1h-3.9C71.2,165.8,71,165.7,70.9,165.4z M63.1,146.3v5.7c0,0.1,0.1,0.2,0.2,0.2h4.4
			c1,0,1.7-0.3,2.3-0.8c0.6-0.6,0.9-1.3,0.9-2.2s-0.3-1.7-0.9-2.2c-0.6-0.6-1.4-0.9-2.3-0.9h-4.4C63.2,146.1,63.1,146.2,63.1,146.3z
			"/>
		<path class="st0" d="M102.6,165.4l-1-3.2c0-0.1-0.1-0.2-0.2-0.2h-8.4c-0.1,0-0.2,0.1-0.2,0.2l-1,3.2c-0.1,0.3-0.3,0.5-0.6,0.5h-4
			c-0.2,0-0.4-0.1-0.4-0.2c-0.1-0.1-0.1-0.3,0-0.5l7.3-22.7c0.1-0.3,0.3-0.5,0.6-0.5h5c0.3,0,0.5,0.2,0.6,0.5l7.3,22.7
			c0,0,0,0.1,0,0.2c0,0.1,0,0.2-0.1,0.3c-0.1,0.1-0.2,0.1-0.4,0.1h-4C103,165.8,102.7,165.7,102.6,165.4z M94.3,158.3h6
			c0.1,0,0.2-0.1,0.2-0.2l-3.1-10.4c0-0.1-0.1-0.1-0.1-0.1c-0.1,0-0.1,0-0.2,0.1l-3,10.4C94.1,158.2,94.1,158.3,94.3,158.3z"/>
		<path class="st0" d="M132.9,142.6v3c0,0.4-0.2,0.6-0.6,0.6h-5.9c-0.1,0-0.2,0.1-0.2,0.2v18.9c0,0.4-0.2,0.6-0.6,0.6H122
			c-0.4,0-0.6-0.2-0.6-0.6v-18.9c0-0.1-0.1-0.2-0.2-0.2h-5.7c-0.4,0-0.6-0.2-0.6-0.6v-3c0-0.4,0.2-0.6,0.6-0.6h16.8
			C132.7,142,132.9,142.2,132.9,142.6z"/>
		<path class="st0" d="M160.2,146.1h-11c-0.1,0-0.2,0.1-0.2,0.2v5.2c0,0.1,0.1,0.2,0.2,0.2h7.1c0.4,0,0.6,0.2,0.6,0.6v3
			c0,0.4-0.2,0.6-0.6,0.6h-7.1c-0.1,0-0.2,0.1-0.2,0.2v5.5c0,0.1,0.1,0.2,0.2,0.2h11c0.4,0,0.6,0.2,0.6,0.6v3c0,0.4-0.2,0.6-0.6,0.6
			h-15.4c-0.4,0-0.6-0.2-0.6-0.6v-22.7c0-0.4,0.2-0.6,0.6-0.6h15.4c0.4,0,0.6,0.2,0.6,0.6v3C160.8,145.9,160.6,146.1,160.2,146.1z"
			/>
		<path class="st0" d="M176,165.1c-1.3-0.7-2.4-1.7-3.1-2.9c-0.7-1.3-1.1-2.7-1.1-4.4v-7.6c0-1.7,0.4-3.1,1.1-4.4
			c0.7-1.3,1.8-2.3,3.1-2.9s2.9-1,4.6-1c1.7,0,3.3,0.3,4.6,1c1.3,0.7,2.4,1.6,3.1,2.8c0.7,1.2,1.1,2.5,1.1,3.9v0.1
			c0,0.4-0.2,0.6-0.6,0.6h-3.6c-0.2,0-0.3,0-0.4-0.1c-0.1-0.1-0.2-0.1-0.2-0.2v-0.2c0-1-0.4-1.9-1.1-2.6s-1.7-1.1-2.9-1.1
			c-1.2,0-2.2,0.4-2.9,1.1c-0.7,0.8-1.1,1.8-1.1,3v7.9c0,1.2,0.4,2.2,1.2,3c0.8,0.8,1.8,1.1,3,1.1c1.2,0,2.1-0.3,2.8-0.9
			c0.7-0.6,1.1-1.5,1.1-2.6v-1.5c0-0.1-0.1-0.2-0.2-0.2h-3.6c-0.4,0-0.6-0.2-0.6-0.6v-2.8c0-0.4,0.2-0.6,0.6-0.6h8
			c0.4,0,0.6,0.2,0.6,0.6v4.3c0,1.7-0.4,3.2-1.1,4.5c-0.7,1.3-1.8,2.2-3.1,2.9c-1.3,0.7-2.9,1-4.6,1
			C178.9,166.1,177.4,165.8,176,165.1z"/>
		<path class="st0" d="M206.3,165.2v-8.4l-0.1-0.3l-6.9-13.9c-0.1-0.1-0.1-0.2-0.1-0.3c0-0.1,0-0.2,0.1-0.3s0.2-0.1,0.4-0.1h4
			c0.3,0,0.5,0.1,0.7,0.4l4.2,8.9c0,0.1,0.1,0.1,0.2,0.1s0.1,0,0.1-0.1l4.2-8.9c0.2-0.3,0.4-0.4,0.7-0.4h4c0.3,0,0.5,0.1,0.5,0.4
			c0,0.1,0,0.2-0.1,0.3l-7,13.9l-0.1,0.3v8.4c0,0.4-0.2,0.6-0.6,0.6h-3.6C206.5,165.8,206.3,165.6,206.3,165.2z"/>
		<path class="st0" d="M278.2,165.1c-1.3-0.7-2.4-1.7-3.1-2.9c-0.7-1.2-1.1-2.7-1.1-4.3V150c0-1.6,0.4-3.1,1.1-4.3
			c0.7-1.2,1.8-2.2,3.1-2.9c1.3-0.7,2.9-1,4.7-1c1.8,0,3.3,0.3,4.6,1c1.3,0.6,2.4,1.6,3.1,2.8c0.7,1.2,1.1,2.6,1.1,4.1
			c0,0.2-0.2,0.3-0.5,0.4l-3.6,0.2h-0.1c-0.3,0-0.5-0.1-0.5-0.2v-0.2c0-1.2-0.4-2.2-1.1-2.9c-0.7-0.7-1.7-1.1-2.9-1.1
			c-1.2,0-2.2,0.4-2.9,1.1c-0.7,0.7-1.1,1.7-1.1,2.9v8.2c0,1.2,0.4,2.1,1.1,2.9c0.7,0.7,1.7,1.1,2.9,1.1c1.2,0,2.2-0.4,2.9-1.1
			s1.1-1.7,1.1-2.9c0-0.1,0.1-0.2,0.2-0.3c0.1-0.1,0.2-0.1,0.4-0.1l3.6,0.2c0.4,0,0.6,0.1,0.6,0.2v0.2c0,1.6-0.4,3-1.1,4.2
			c-0.7,1.2-1.8,2.1-3.1,2.8s-2.9,1-4.6,1C281.1,166.1,279.5,165.8,278.2,165.1z"/>
		<path class="st0" d="M315.9,165.4l-4.2-9.3c0-0.1-0.1-0.2-0.2-0.2h-3.1c-0.1,0-0.2,0.1-0.2,0.2v9.1c0,0.4-0.2,0.6-0.6,0.6H304
			c-0.4,0-0.6-0.2-0.6-0.6v-22.7c0-0.4,0.2-0.6,0.6-0.6h9.6c1.5,0,2.7,0.3,3.8,0.9c1.1,0.6,2,1.4,2.6,2.5c0.6,1.1,0.9,2.3,0.9,3.8
			c0,1.5-0.4,2.9-1.2,4c-0.8,1.1-1.8,1.9-3.2,2.4c-0.1,0-0.1,0.1-0.1,0.1c0,0.1,0,0.1,0,0.2l4.5,9.4c0.1,0.1,0.1,0.2,0.1,0.3
			c0,0.1,0,0.2-0.1,0.3s-0.2,0.1-0.4,0.1h-3.9C316.3,165.8,316.1,165.7,315.9,165.4z M308.2,146.3v5.7c0,0.1,0.1,0.2,0.2,0.2h4.4
			c1,0,1.7-0.3,2.3-0.8c0.6-0.6,0.9-1.3,0.9-2.2s-0.3-1.7-0.9-2.2c-0.6-0.6-1.4-0.9-2.3-0.9h-4.4
			C308.3,146.1,308.2,146.2,308.2,146.3z"/>
		<path class="st0" d="M348.5,146.1h-11c-0.1,0-0.2,0.1-0.2,0.2v5.2c0,0.1,0.1,0.2,0.2,0.2h7.1c0.4,0,0.6,0.2,0.6,0.6v3
			c0,0.4-0.2,0.6-0.6,0.6h-7.1c-0.1,0-0.2,0.1-0.2,0.2v5.5c0,0.1,0.1,0.2,0.2,0.2h11c0.4,0,0.6,0.2,0.6,0.6v3c0,0.4-0.2,0.6-0.6,0.6
			h-15.4c-0.4,0-0.6-0.2-0.6-0.6v-22.7c0-0.4,0.2-0.6,0.6-0.6h15.4c0.4,0,0.6,0.2,0.6,0.6v3C349.1,145.9,348.9,146.1,348.5,146.1z"
			/>
		<path class="st0" d="M375.3,165.4l-1-3.2c0-0.1-0.1-0.2-0.2-0.2h-8.4c-0.1,0-0.2,0.1-0.2,0.2l-1,3.2c-0.1,0.3-0.3,0.5-0.6,0.5h-4
			c-0.2,0-0.4-0.1-0.4-0.2c-0.1-0.1-0.1-0.3,0-0.5l7.3-22.7c0.1-0.3,0.3-0.5,0.6-0.5h5c0.3,0,0.5,0.2,0.6,0.5l7.3,22.7
			c0,0,0,0.1,0,0.2c0,0.1,0,0.2-0.1,0.3c-0.1,0.1-0.2,0.1-0.4,0.1h-4C375.6,165.8,375.4,165.7,375.3,165.4z M367,158.3h6
			c0.1,0,0.2-0.1,0.2-0.2l-3.1-10.4c0-0.1-0.1-0.1-0.1-0.1c-0.1,0-0.1,0-0.2,0.1l-3,10.4C366.8,158.2,366.8,158.3,367,158.3z"/>
		<path class="st0" d="M405.6,142.6v3c0,0.4-0.2,0.6-0.6,0.6h-5.9c-0.1,0-0.2,0.1-0.2,0.2v18.9c0,0.4-0.2,0.6-0.6,0.6h-3.6
			c-0.4,0-0.6-0.2-0.6-0.6v-18.9c0-0.1-0.1-0.2-0.2-0.2h-5.7c-0.4,0-0.6-0.2-0.6-0.6v-3c0-0.4,0.2-0.6,0.6-0.6H405
			C405.4,142,405.6,142.2,405.6,142.6z"/>
		<path class="st0" d="M416.9,165.3v-22.7c0-0.4,0.2-0.6,0.6-0.6h3.6c0.4,0,0.6,0.2,0.6,0.6v22.7c0,0.4-0.2,0.6-0.6,0.6h-3.6
			C417.1,165.8,416.9,165.6,416.9,165.3z"/>
		<path class="st0" d="M439.9,165.4l-6.9-22.7c0,0,0-0.1,0-0.2c0-0.3,0.2-0.4,0.5-0.4h4c0.3,0,0.5,0.2,0.6,0.5l4.5,16.4
			c0,0.1,0.1,0.1,0.1,0.1s0.1,0,0.1-0.1l4.4-16.4c0.1-0.3,0.3-0.5,0.6-0.5h3.9c0.2,0,0.4,0.1,0.4,0.2s0.1,0.3,0,0.5l-7,22.7
			c-0.1,0.3-0.3,0.5-0.6,0.5h-4C440.2,165.8,440,165.7,439.9,165.4z"/>
		<path class="st0" d="M479.2,146.1h-11c-0.1,0-0.2,0.1-0.2,0.2v5.2c0,0.1,0.1,0.2,0.2,0.2h7.1c0.4,0,0.6,0.2,0.6,0.6v3
			c0,0.4-0.2,0.6-0.6,0.6h-7.1c-0.1,0-0.2,0.1-0.2,0.2v5.5c0,0.1,0.1,0.2,0.2,0.2h11c0.4,0,0.6,0.2,0.6,0.6v3c0,0.4-0.2,0.6-0.6,0.6
			h-15.4c-0.4,0-0.6-0.2-0.6-0.6v-22.7c0-0.4,0.2-0.6,0.6-0.6h15.4c0.4,0,0.6,0.2,0.6,0.6v3C479.8,145.9,479.6,146.1,479.2,146.1z"
			/>
		<path class="st0" d="M553.2,142.6v3c0,0.4-0.2,0.6-0.6,0.6h-5.9c-0.1,0-0.2,0.1-0.2,0.2v18.9c0,0.4-0.2,0.6-0.6,0.6h-3.6
			c-0.4,0-0.6-0.2-0.6-0.6v-18.9c0-0.1-0.1-0.2-0.2-0.2h-5.7c-0.4,0-0.6-0.2-0.6-0.6v-3c0-0.4,0.2-0.6,0.6-0.6h16.8
			C553,142,553.2,142.2,553.2,142.6z"/>
		<path class="st0" d="M580.4,146.1h-11c-0.1,0-0.2,0.1-0.2,0.2v5.2c0,0.1,0.1,0.2,0.2,0.2h7.1c0.4,0,0.6,0.2,0.6,0.6v3
			c0,0.4-0.2,0.6-0.6,0.6h-7.1c-0.1,0-0.2,0.1-0.2,0.2v5.5c0,0.1,0.1,0.2,0.2,0.2h11c0.4,0,0.6,0.2,0.6,0.6v3c0,0.4-0.2,0.6-0.6,0.6
			H565c-0.4,0-0.6-0.2-0.6-0.6v-22.7c0-0.4,0.2-0.6,0.6-0.6h15.4c0.4,0,0.6,0.2,0.6,0.6v3C581,145.9,580.8,146.1,580.4,146.1z"/>
		<path class="st0" d="M596.3,165.1c-1.3-0.7-2.4-1.7-3.1-2.9s-1.1-2.7-1.1-4.3V150c0-1.6,0.4-3.1,1.1-4.3s1.8-2.2,3.1-2.9
			c1.3-0.7,2.9-1,4.7-1c1.8,0,3.3,0.3,4.6,1c1.3,0.6,2.4,1.6,3.1,2.8c0.7,1.2,1.1,2.6,1.1,4.1c0,0.2-0.2,0.3-0.5,0.4l-3.6,0.2h-0.1
			c-0.3,0-0.5-0.1-0.5-0.2v-0.2c0-1.2-0.4-2.2-1.1-2.9c-0.7-0.7-1.7-1.1-2.9-1.1c-1.2,0-2.2,0.4-2.9,1.1c-0.7,0.7-1.1,1.7-1.1,2.9
			v8.2c0,1.2,0.4,2.1,1.1,2.9c0.7,0.7,1.7,1.1,2.9,1.1c1.2,0,2.2-0.4,2.9-1.1c0.7-0.7,1.1-1.7,1.1-2.9c0-0.1,0.1-0.2,0.2-0.3
			c0.1-0.1,0.2-0.1,0.4-0.1l3.6,0.2c0.4,0,0.6,0.1,0.6,0.2v0.2c0,1.6-0.4,3-1.1,4.2c-0.7,1.2-1.8,2.1-3.1,2.8c-1.3,0.7-2.9,1-4.6,1
			C599.2,166.1,597.6,165.8,596.3,165.1z"/>
		<path class="st0" d="M634.7,142h3.6c0.4,0,0.6,0.2,0.6,0.6v22.7c0,0.4-0.2,0.6-0.6,0.6h-3.6c-0.4,0-0.6-0.2-0.6-0.6v-9.2
			c0-0.1-0.1-0.2-0.2-0.2h-7.5c-0.1,0-0.2,0.1-0.2,0.2v9.2c0,0.4-0.2,0.6-0.6,0.6H622c-0.4,0-0.6-0.2-0.6-0.6v-22.7
			c0-0.4,0.2-0.6,0.6-0.6h3.6c0.4,0,0.6,0.2,0.6,0.6v9c0,0.1,0.1,0.2,0.2,0.2h7.5c0.1,0,0.2-0.1,0.2-0.2v-9
			C634.1,142.2,634.3,142,634.7,142z"/>
		<path class="st0" d="M651.1,165.3v-22.7c0-0.4,0.2-0.6,0.6-0.6h3.5c0.3,0,0.5,0.1,0.7,0.4l8.5,14.2c0,0.1,0.1,0.1,0.2,0.1
			s0.1-0.1,0.1-0.2v-13.9c0-0.4,0.2-0.6,0.6-0.6h3.6c0.4,0,0.6,0.2,0.6,0.6v22.7c0,0.4-0.2,0.6-0.6,0.6h-3.5c-0.3,0-0.5-0.1-0.7-0.4
			l-8.6-14.3c0-0.1-0.1-0.1-0.2-0.1c-0.1,0-0.1,0.1-0.1,0.2l0,14.1c0,0.4-0.2,0.6-0.6,0.6h-3.6C651.3,165.8,651.1,165.6,651.1,165.3
			z"/>
		<path class="st0" d="M685.5,165.1c-1.4-0.7-2.4-1.7-3.2-3.1s-1.1-2.8-1.1-4.5v-7.3c0-1.7,0.4-3.2,1.1-4.5s1.8-2.3,3.2-3
			s2.9-1.1,4.7-1.1c1.8,0,3.4,0.4,4.7,1.1s2.4,1.7,3.2,3s1.1,2.8,1.1,4.5v7.3c0,1.7-0.4,3.2-1.1,4.5s-1.8,2.3-3.2,3.1
			s-2.9,1.1-4.7,1.1C688.4,166.2,686.8,165.9,685.5,165.1z M693.2,160.9c0.8-0.8,1.2-1.9,1.2-3.2v-7.5c0-1.3-0.4-2.4-1.1-3.2
			s-1.8-1.2-3.1-1.2c-1.2,0-2.3,0.4-3,1.2s-1.1,1.9-1.1,3.2v7.5c0,1.3,0.4,2.4,1.1,3.2c0.8,0.8,1.8,1.2,3,1.2
			S692.4,161.7,693.2,160.9z"/>
		<path class="st0" d="M711,165.3v-22.7c0-0.4,0.2-0.6,0.6-0.6h3.6c0.4,0,0.6,0.2,0.6,0.6v19c0,0.1,0.1,0.2,0.2,0.2H727
			c0.4,0,0.6,0.2,0.6,0.6v3c0,0.4-0.2,0.6-0.6,0.6h-15.4C711.2,165.8,711,165.6,711,165.3z"/>
		<path class="st0" d="M742.3,165.1c-1.4-0.7-2.4-1.7-3.2-3.1s-1.1-2.8-1.1-4.5v-7.3c0-1.7,0.4-3.2,1.1-4.5s1.8-2.3,3.2-3
			s2.9-1.1,4.7-1.1c1.8,0,3.4,0.4,4.7,1.1s2.4,1.7,3.2,3s1.1,2.8,1.1,4.5v7.3c0,1.7-0.4,3.2-1.1,4.5s-1.8,2.3-3.2,3.1
			s-2.9,1.1-4.7,1.1C745.2,166.2,743.6,165.9,742.3,165.1z M750,160.9c0.8-0.8,1.2-1.9,1.2-3.2v-7.5c0-1.3-0.4-2.4-1.1-3.2
			s-1.8-1.2-3.1-1.2c-1.2,0-2.3,0.4-3,1.2s-1.1,1.9-1.1,3.2v7.5c0,1.3,0.4,2.4,1.1,3.2c0.8,0.8,1.8,1.2,3,1.2S749.2,161.7,750,160.9
			z"/>
		<path class="st0" d="M771.6,165.1c-1.3-0.7-2.4-1.7-3.1-2.9c-0.7-1.3-1.1-2.7-1.1-4.4v-7.6c0-1.7,0.4-3.1,1.1-4.4
			c0.7-1.3,1.8-2.3,3.1-2.9c1.3-0.7,2.9-1,4.6-1c1.7,0,3.3,0.3,4.6,1c1.3,0.7,2.4,1.6,3.1,2.8c0.7,1.2,1.1,2.5,1.1,3.9v0.1
			c0,0.4-0.2,0.6-0.6,0.6h-3.6c-0.2,0-0.3,0-0.4-0.1c-0.1-0.1-0.2-0.1-0.2-0.2v-0.2c0-1-0.4-1.9-1.1-2.6s-1.7-1.1-2.9-1.1
			c-1.2,0-2.2,0.4-2.9,1.1c-0.7,0.8-1.1,1.8-1.1,3v7.9c0,1.2,0.4,2.2,1.2,3s1.8,1.1,3,1.1c1.2,0,2.1-0.3,2.8-0.9
			c0.7-0.6,1.1-1.5,1.1-2.6v-1.5c0-0.1-0.1-0.2-0.2-0.2h-3.6c-0.4,0-0.6-0.2-0.6-0.6v-2.8c0-0.4,0.2-0.6,0.6-0.6h8
			c0.4,0,0.6,0.2,0.6,0.6v4.3c0,1.7-0.4,3.2-1.1,4.5c-0.7,1.3-1.8,2.2-3.1,2.9c-1.3,0.7-2.9,1-4.6,1
			C774.4,166.1,772.9,165.8,771.6,165.1z"/>
		<path class="st0" d="M801.8,165.2v-8.4l-0.1-0.3l-6.9-13.9c-0.1-0.1-0.1-0.2-0.1-0.3c0-0.1,0-0.2,0.1-0.3s0.2-0.1,0.4-0.1h4
			c0.3,0,0.5,0.1,0.7,0.4l4.2,8.9c0,0.1,0.1,0.1,0.2,0.1c0.1,0,0.1,0,0.1-0.1l4.2-8.9c0.2-0.3,0.4-0.4,0.7-0.4h4
			c0.3,0,0.5,0.1,0.5,0.4c0,0.1,0,0.2-0.1,0.3l-7,13.9l-0.1,0.3v8.4c0,0.4-0.2,0.6-0.6,0.6h-3.6C802,165.8,801.8,165.6,801.8,165.2z
			"/>
	</g>
</g>
</svg>
