<?xml version="1.0" encoding="utf-8"?>
<!-- Generator: Adobe Illustrator 23.0.2, SVG Export Plug-In . SVG Version: 6.00 Build 0)  -->
<svg version="1.1" id="Layer_1" xmlns="http://www.w3.org/2000/svg" xmlns:xlink="http://www.w3.org/1999/xlink" x="0px" y="0px"
	 viewBox="0 0 813.7 93.9" style="enable-background:new 0 0 813.7 93.9;" xml:space="preserve">
<style type="text/css">
	.st0{fill:#FFFFFF;}
</style>
<g>
	<g>
		<path class="st0" d="M96.8,92L85,67.4l-14.8-31l-14.9,31L43.5,92H32.4L0,24.4h11.3l16.5,35.4l10.2,21.5l10.3-21.5l16.3-35.4h11.2
			l16.5,35.4l10.2,21.5l10.3-21.5L129,24.4h11.4L107.9,92H96.8z"/>
		<path class="st0" d="M242.9,92c-4.4,1.3-8.1,1.9-11.2,1.9c-11.2,0-12.7-6-12.9-15.3c-6.7,8.7-22.6,15.3-39,15.3
			c-20.6,0-35-8.2-35-23.7c0-17,18.4-20.8,35-20.8c11.4,0,27,1.3,38.5,3.1c0-11.3-8.5-20.3-33.4-20.3c-15.3,0-27.9,3-31.3,4.2
			l-3.3-9c3.9-1.4,18.1-4.9,34.6-4.9c32.4,0,43.9,13.4,43.9,31.4v20.7c0,6.6,1.3,9.8,7.1,9.8c1.8,0,4.5-0.5,7.1-1.4V92z M181.6,85
			c16.3,0,32.9-7.2,36.9-16.5V56.5h-39.1c-11.2,0-24,2.3-24,13.1C155.3,80,166.7,85,181.6,85z"/>
		<path class="st0" d="M332.4,24.4L289.2,92H278l-43.1-67.5H247l21.9,35.4L283.7,83l14.7-23.1l22-35.4H332.4z"/>
		<path class="st0" d="M344.1,63.4c2.3,13.6,14.9,20.8,39.5,20.8c17.7,0,33.4-3.5,37.3-4.8l2.1,9c-4.5,1.7-20.3,5.4-39,5.4
			c-34.1,0-50.9-12.5-50.9-35.2c0-19.8,14.7-36.1,45.1-36.1c29.3,0,52.2,13.6,43.7,40.9H344.1z M411.9,55.4
			c4-16.2-12.6-23.5-33.2-23.5c-23.7,0-33.4,10.2-34.7,23.5H411.9z"/>
		<path class="st0" d="M436.1,92V24.6l9.9-1.2l0.3,7.3l0.1,0.1c8.7-4.4,17.5-8.4,29.3-8.4c14,0,23.4,4,29.2,10.5
			c10-5.7,24.7-10.5,36.8-10.5c27.5,0,37.2,15,37.2,35.2V92h-10.3V57.7c0-14.7-6-25.7-27.9-25.7c-12.7,0-23.4,4.2-31.8,8.2
			c2.6,5,3.7,10.9,3.7,17.5V92h-10.3V57.7c0-14.7-5.7-25.7-27.4-25.7c-12.7,0-21.6,4.2-28.6,7.3V92H436.1z"/>
		<path class="st0" d="M593.6,92V24.6l10.3-1.2V92H593.6z"/>
		<path class="st0" d="M698.8,92V57.7c0-14.7-8.5-25.7-32-25.7c-13.5,0-27.4,3.9-37.8,7.3V92h-10.3V24.6l9.9-1.2l0.3,7.3l0.1,0.1
			c10.3-4.2,23.9-8.4,38.8-8.4c29.1,0,41.3,15,41.3,35.2V92H698.8z"/>
		<path class="st0" d="M802.7,21.2V1.2L813,0v92h-9.1l-0.6-13.4l-0.1-0.1c-8.4,7.7-23.3,15.4-42.4,15.4c-26.8,0-41.9-15-41.9-36
			c0-20.3,14.3-35.4,43.9-35.4c14,0,29.3,3.5,40.1,8.5l0.1-0.1L802.7,21.2z M729.1,58c0,15.2,11.2,26.2,32.5,26.2
			c18,0,34.5-7.6,41-15.4V39.4c-10.5-4-26.2-7.3-39.2-7.3C739.7,32,729.1,43.1,729.1,58z"/>
	</g>
</g>
</svg>
